<svg width="42" height="39" viewBox="0 0 42 39" fill="none" xmlns="http://www.w3.org/2000/svg">
<path d="M30.7045 1.5H11.5682C6.28381 1.5 2 5.52944 2 10.5V28.5C2 33.4706 6.28381 37.5 11.5682 37.5H30.7045C35.9888 37.5 40.2726 33.4706 40.2726 28.5V10.5C40.2726 5.52944 35.9888 1.5 30.7045 1.5Z" stroke="black" stroke-width="3" stroke-linecap="round" stroke-linejoin="round"/>
<path d="M28.7908 18.3656C29.027 19.8636 28.755 21.3936 28.0134 22.7378C27.2719 24.082 26.0986 25.1721 24.6605 25.853C23.2224 26.5338 21.5926 26.7708 20.003 26.5302C18.4135 26.2896 16.945 25.5837 15.8065 24.5129C14.6681 23.442 13.9176 22.0607 13.6618 20.5656C13.406 19.0704 13.658 17.5374 14.3818 16.1846C15.1057 14.8319 16.2646 13.7283 17.6937 13.0308C19.1228 12.3333 20.7493 12.0774 22.3419 12.2996C23.9664 12.5262 25.4704 13.2382 26.6317 14.3305C27.793 15.4228 28.5499 16.8375 28.7908 18.3656Z" stroke="black" stroke-width="3" stroke-linecap="round" stroke-linejoin="round"/>
<path d="M31.6615 9.59961H31.6842" stroke="black" stroke-width="3" stroke-linecap="round" stroke-linejoin="round"/>
</svg>
