<svg width="42" height="40" viewBox="0 0 42 40" fill="none" xmlns="http://www.w3.org/2000/svg">
<path d="M21 0C32.5789 0 42 7.64049 42 17.0337C42 20.7936 40.5431 24.1783 37.4981 27.5131C33.0934 32.5823 23.2417 38.7561 21 39.7006C18.8213 40.619 19.0732 39.1838 19.173 38.617L19.1809 38.5698L19.4801 36.7725C19.551 36.2372 19.6245 35.4055 19.4119 34.8755C19.1756 34.2904 18.2464 33.986 17.5639 33.8391C7.47075 32.5088 0 25.4534 0 17.0337C0 7.64049 9.42375 0 21 0ZM13.1827 20.1665H9.17962V12.9038C9.17963 12.7957 9.13684 12.692 9.06061 12.6153C8.98439 12.5386 8.8809 12.4952 8.77275 12.4945H7.2975C7.24372 12.4945 7.19047 12.5051 7.14079 12.5257C7.09111 12.5462 7.04597 12.5764 7.00794 12.6144C6.96991 12.6524 6.93975 12.6975 6.91917 12.7472C6.89859 12.7968 6.888 12.8501 6.888 12.9038V22.0504C6.888 22.1579 6.93262 22.2603 7.0035 22.3311V22.3337L7.00875 22.339L7.014 22.3442C7.09013 22.4174 7.19188 22.4579 7.2975 22.4571H13.1827C13.4085 22.4571 13.5896 22.2734 13.5896 22.0477V20.5784C13.59 20.5247 13.5797 20.4714 13.5595 20.4216C13.5392 20.3718 13.5093 20.3265 13.4715 20.2882C13.4338 20.25 13.3888 20.2195 13.3393 20.1986C13.2897 20.1778 13.2365 20.1668 13.1827 20.1665V20.1665ZM15.2591 12.4945C15.1505 12.4945 15.0464 12.5376 14.9696 12.6144C14.8928 12.6912 14.8496 12.7953 14.8496 12.9038V22.0504C14.8496 22.276 15.0334 22.4571 15.2591 22.4571H16.7344C16.9601 22.4571 17.1413 22.2734 17.1413 22.0504V12.9038C17.1413 12.7957 17.0985 12.692 17.0222 12.6153C16.946 12.5386 16.8425 12.4952 16.7344 12.4945H15.2591ZM25.3995 12.4945C25.2909 12.4945 25.1867 12.5376 25.1099 12.6144C25.0331 12.6912 24.99 12.7953 24.99 12.9038V18.3351L20.7979 12.6782C20.7873 12.6644 20.7759 12.6513 20.7637 12.6388V12.6362C20.7555 12.627 20.7467 12.6183 20.7375 12.61L20.7296 12.6021C20.7206 12.5935 20.711 12.5856 20.7008 12.5785H20.6981L20.685 12.568L20.6771 12.5627C20.673 12.5597 20.6686 12.557 20.664 12.5549L20.643 12.5417H20.6377L20.6299 12.5365L20.6036 12.526L20.5931 12.5207C20.5845 12.5176 20.5758 12.515 20.5669 12.5129H20.5616L20.5537 12.5103L20.5301 12.505H20.5144L20.5065 12.5024H20.496L20.4908 12.4998H18.984C18.8758 12.4998 18.7721 12.5425 18.6954 12.6187C18.6186 12.6949 18.5752 12.7983 18.5745 12.9064V22.053C18.5745 22.2786 18.7582 22.4597 18.984 22.4597H20.454C20.6824 22.4597 20.8661 22.276 20.8661 22.053V16.6217L25.0661 22.2891C25.0941 22.3282 25.1287 22.362 25.1685 22.3888L25.1711 22.3915L25.1974 22.4072L25.2079 22.4125C25.2146 22.4164 25.2216 22.4199 25.2289 22.423L25.2473 22.4308L25.2604 22.4361C25.269 22.439 25.2778 22.4416 25.2866 22.4439H25.2945C25.3287 22.4538 25.364 22.459 25.3995 22.4597H26.8695C27.0979 22.4597 27.2816 22.276 27.2816 22.053V12.9038C27.2816 12.7953 27.2385 12.6912 27.1617 12.6144C27.0849 12.5376 26.9807 12.4945 26.8721 12.4945H25.3995V12.4945ZM35.4139 14.3758V12.9064C35.4142 12.8527 35.404 12.7994 35.3837 12.7496C35.3634 12.6998 35.3336 12.6545 35.2958 12.6162C35.258 12.578 35.2131 12.5476 35.1635 12.5267C35.114 12.5058 35.0608 12.4949 35.007 12.4945H29.1217C29.0158 12.4946 28.9141 12.5361 28.8383 12.61H28.8356L28.833 12.6152L28.8278 12.6231C28.7544 12.6983 28.7131 12.7988 28.7122 12.9038V22.0504C28.7122 22.1579 28.7569 22.2603 28.8278 22.3311L28.833 22.339L28.8383 22.3442C28.9145 22.4172 29.0162 22.4576 29.1217 22.4571H35.007C35.2328 22.4571 35.4139 22.2734 35.4139 22.0477V20.5784C35.4142 20.5247 35.404 20.4714 35.3837 20.4216C35.3634 20.3718 35.3336 20.3265 35.2958 20.2882C35.258 20.25 35.2131 20.2195 35.1635 20.1986C35.114 20.1778 35.0608 20.1668 35.007 20.1665H31.0013V18.6211H35.0044C35.2301 18.6211 35.4112 18.4374 35.4112 18.2118V16.7424C35.4116 16.6887 35.4013 16.6354 35.3811 16.5856C35.3608 16.5358 35.331 16.4905 35.2932 16.4522C35.2554 16.414 35.2104 16.3835 35.1609 16.3627C35.1113 16.3418 35.0582 16.3308 35.0044 16.3305H31.0013V14.7851H35.0044C35.2301 14.7851 35.4112 14.6014 35.4112 14.3758H35.4139Z" fill="black"/>
</svg>
